<svg width="140" height="140" viewBox="0 0 140 140" fill="none" xmlns="http://www.w3.org/2000/svg">
<rect width="140" height="140" rx="31" fill="#7EB763"/>
<circle cx="54" cy="72.9999" r="5.5" fill="white" stroke="white"/>
<circle cx="86" cy="72.9999" r="5.5" fill="white" stroke="white"/>
<path d="M87 84.9999C87 86.5507 86.6286 88.1203 85.8644 89.6298C85.0975 91.1447 83.9367 92.5926 82.3902 93.858C80.8422 95.1245 78.9539 96.1691 76.8142 96.8943C74.675 97.6193 72.3572 97.9999 70 97.9999C67.6428 97.9999 65.325 97.6193 63.1858 96.8943C61.0461 96.1691 59.1578 95.1245 57.6098 93.858C56.0633 92.5926 54.9025 91.1447 54.1356 89.6298C53.3714 88.1203 53 86.5507 53 84.9999" stroke="white" stroke-width="10" stroke-linejoin="round"/>
<path d="M88 12C88.2501 12 88.4991 12.0051 88.7469 12.0146C89.1209 12.0291 89.451 12.2618 89.5894 12.6095C90.4993 14.8958 91 17.3894 91 20C91 31.0457 82.0457 40 71 40C70.5703 40 70.144 39.9841 69.7211 39.9571C69.6747 39.9541 69.6338 39.9254 69.6157 39.8826C69.5723 39.7804 69.4277 39.7804 69.3843 39.8826C69.3662 39.9254 69.3253 39.9541 69.2789 39.9571C68.856 39.9841 68.4297 40 68 40C56.9543 40 48 31.0457 48 20C48 17.3894 48.5007 14.8958 49.4106 12.6095C49.549 12.2618 49.8791 12.0291 50.2531 12.0146C50.5009 12.0051 50.7499 12 51 12C58.4874 12 65.013 16.1147 68.4407 22.206C68.8786 22.9841 70.1214 22.9841 70.5593 22.206C73.987 16.1147 80.5126 12 88 12Z" fill="white"/>
<path d="M92.7764 32.4805C105.151 38.8263 114.532 50.18 118.249 63.8672C122.868 66.4218 126 71.3405 126 77C126 82.6597 122.867 87.5765 118.249 90.1309C112.48 111.373 93.0742 127 70 127C46.9257 127 27.5175 111.373 21.749 90.1309C17.1319 87.5761 14 82.6589 14 77C14 71.3413 17.1312 66.4222 21.749 63.8672C25.3834 50.4855 34.4318 39.3346 46.3984 32.9131C47.7072 36.0309 49.8763 38.7828 52.6523 40.9492C41.7104 46.2244 33.5349 56.333 30.9043 68.5068C30.5239 70.2675 29.2263 71.6881 27.5068 72.2246C25.4701 72.8601 24 74.7646 24 77C24 79.2346 25.4696 81.1386 27.5068 81.7744C29.2263 82.311 30.5249 83.7316 30.9053 85.4922C34.7974 103.506 50.8276 117 70 117C89.1722 117 105.201 103.506 109.094 85.4922L109.176 85.166C109.638 83.5572 110.88 82.2774 112.492 81.7744C114.53 81.1387 116 79.2346 116 77C116 74.7646 114.529 72.86 112.492 72.2246C110.773 71.6881 109.475 70.2675 109.095 68.5068C106.414 56.1009 97.9754 45.8392 86.7188 40.6523C89.4421 38.4315 91.5461 35.6343 92.7764 32.4805ZM70 27C70.5116 27 71.0214 27.0101 71.5293 27.0254C70.7375 28.082 70.0552 29.2073 69.5 30.3906C68.9514 29.2214 68.2787 28.109 67.499 27.0635C68.3276 27.0227 69.1613 27 70 27Z" fill="white"/>
<path d="M69.5 50.0166V34.9833" stroke="white" stroke-width="10" stroke-linecap="round"/>
</svg>
